<svg xmlns="http://www.w3.org/2000/svg" viewBox="0 0 100 100">
  <!-- Chef Hat Top -->
  <path d="M 30,35 Q 30,25 35,22 Q 40,18 45,20 Q 48,15 50,15 Q 52,15 55,20 Q 60,18 65,22 Q 70,25 70,35 L 70,42 Q 70,45 67,45 L 33,45 Q 30,45 30,42 Z"
        fill="black" stroke="black" stroke-width="2" stroke-linejoin="round"/>

  <!-- Hat Brim -->
  <rect x="25" y="43" width="50" height="10" rx="3" fill="black"/>

  <!-- Tech Nodes (Circuit pattern below hat) -->
  <circle cx="35" cy="65" r="3.5" fill="black"/>
  <circle cx="45" cy="72" r="3.5" fill="black"/>
  <circle cx="50" cy="78" r="4" fill="black"/>
  <circle cx="55" cy="72" r="3.5" fill="black"/>
  <circle cx="65" cy="65" r="3.5" fill="black"/>

  <!-- Connection Lines (Circuit traces) -->
  <line x1="35" y1="65" x2="45" y2="72" stroke="black" stroke-width="2" stroke-linecap="round"/>
  <line x1="45" y1="72" x2="50" y2="78" stroke="black" stroke-width="2" stroke-linecap="round"/>
  <line x1="50" y1="78" x2="55" y2="72" stroke="black" stroke-width="2" stroke-linecap="round"/>
  <line x1="55" y1="72" x2="65" y2="65" stroke="black" stroke-width="2" stroke-linecap="round"/>

  <!-- Small circuit branches for tech feel -->
  <line x1="35" y1="65" x2="32" y2="68" stroke="black" stroke-width="1.5" stroke-linecap="round"/>
  <line x1="65" y1="65" x2="68" y2="68" stroke="black" stroke-width="1.5" stroke-linecap="round"/>
  <circle cx="32" cy="68" r="2" fill="black"/>
  <circle cx="68" cy="68" r="2" fill="black"/>
</svg>
